<svg xmlns="http://www.w3.org/2000/svg" version="1.1" xmlns:xlink="http://www.w3.org/1999/xlink" xmlns:svgjs="http://svgjs.dev/svgjs" width="1000" height="292" viewBox="0 0 1000 292"><g transform="matrix(1,0,0,1,-0.6056289610522185,-0.457602025747633)"><svg viewBox="0 0 396 116" data-background-color="#776b6b" preserveAspectRatio="xMidYMid meet" height="292" width="1000" xmlns="http://www.w3.org/2000/svg" xmlns:xlink="http://www.w3.org/1999/xlink"><g id="tight-bounds" transform="matrix(1,0,0,1,0.2398290685766824,0.182598639067578)"><svg viewBox="0 0 395.52 115.6356142548135" height="115.6356142548135" width="395.52"><g><svg viewBox="0 0 395.52 115.6356142548135" height="115.6356142548135" width="395.52"><g><svg viewBox="0 0 395.52 115.6356142548135" height="115.6356142548135" width="395.52"><g id="textblocktransform"><svg viewBox="0 0 395.52 115.6356142548135" height="115.6356142548135" width="395.52" id="textblock"><g><svg viewBox="0 0 395.52 89.88991323629769" height="89.88991323629769" width="395.52"><g transform="matrix(1,0,0,1,0,0)"><svg width="395.52" viewBox="-3.493253469467163 -35.15471649169922 199.09495544433594 45.24835968017578" height="89.88991323629769" data-palette-color="#ffffff"><path d="M6.605 3.795l-2.856-15.285-1.609-8.194c-0.228-1.199-0.644-2.066-1.248-2.602-0.604-0.537-1.216-0.79-1.835-0.761-0.611 0.035-1.171 0.033-1.68-0.006-0.51-0.039-0.795-0.219-0.856-0.54v0c-0.098-0.517 0.321-0.865 1.257-1.043v0l8.056-1.532 4.815-1.068c2.914-0.554 5.547-0.291 7.896 0.788 2.35 1.08 3.761 2.864 4.235 5.353v0c0.314 1.65 0.275 3.158-0.117 4.522-0.399 1.365-0.925 2.395-1.581 3.089-0.655 0.695-1.258 1.305-1.81 1.831-0.553 0.519-0.817 0.844-0.792 0.975v0c0.073 0.386 1.831 2.224 5.273 5.512 3.434 3.283 5.753 5.363 6.958 6.24v0c1.52 1.285 3.155 1.762 4.904 1.429v0c0.452-0.086 0.715 0.064 0.788 0.45v0c0.092 0.485-0.039 0.846-0.395 1.083-0.362 0.238-1.325 0.507-2.89 0.804-1.572 0.299-3.057 0.195-4.457-0.312v0c-1.939-0.669-5.572-3.999-10.899-9.99v0c-2.032-2.226-3.47-3.259-4.315-3.098v0l-3.978 0.756c-0.386 0.073-0.588 0.278-0.606 0.614-0.018 0.336 0.124 1.296 0.426 2.881v0c0 0 0.249 1.31 0.747 3.93v0l0.529 2.566c0 0 0.027 0.144 0.082 0.433v0c0.253 1.329 0.756 2.299 1.51 2.909 0.754 0.61 1.521 0.898 2.302 0.865 0.782-0.027 1.495-0.026 2.138 0 0.643 0.027 0.996 0.204 1.058 0.532v0c0.098 0.517-0.144 0.832-0.727 0.943v0c0 0-2.334 0.325-7.001 0.975v0l-5.297 1.211c-0.681 0.13-1.071-0.064-1.169-0.582v0c-0.105-0.55 0.505-1.036 1.83-1.458v0c0.505-0.164 0.909-0.611 1.211-1.339 0.297-0.722 0.332-1.682 0.103-2.881zM6.522-18.858l0.257 1.356c0.634 3.334 1.039 5.394 1.217 6.182 0.183 0.786 0.386 1.226 0.607 1.319v0c0.539 0.196 1.261 0.208 2.165 0.036v0l1.896-0.36c2.751-0.523 4.595-1.529 5.534-3.017 0.94-1.482 1.22-3.218 0.841-5.209-0.379-1.991-1.507-3.66-3.385-5.006-1.886-1.351-4.413-1.726-7.583-1.123v0c-1.192 0.227-1.859 0.679-2.002 1.358-0.136 0.677 0.015 2.165 0.453 4.464zM34.924-12.753v0c-0.579-5.503 0.601-10.185 3.539-14.047 2.938-3.869 7.434-6.121 13.487-6.759v0c2.818-0.296 5.4-0.156 7.747 0.422 2.341 0.585 4.23 1.405 5.668 2.46 1.432 1.056 2.673 2.306 3.723 3.751v0c1.821 2.523 2.865 5.061 3.134 7.614v0c0.469 4.455-0.004 8.313-1.417 11.572v0c-2.695 6.176-7.938 9.674-15.728 10.493v0c-3.892 0.409-7.346-0.088-10.363-1.493-3.01-1.406-5.314-3.332-6.913-5.779-1.598-2.446-2.557-5.191-2.877-8.234zM38.986-15.714v0c0.307 2.917 1.39 5.817 3.248 8.698v0c0.988 1.552 2.133 2.913 3.436 4.082 1.296 1.171 2.88 2.08 4.752 2.728 1.871 0.648 3.871 0.86 5.999 0.636v0c2.427-0.255 4.742-1.213 6.948-2.873v0c2.457-1.814 4.082-4.15 4.873-7.008v0c0.468-1.544 0.61-3.181 0.428-4.912v0c-0.624-5.927-2.663-10.372-6.118-13.333-3.456-2.968-7.478-4.211-12.066-3.728v0c-3.6 0.379-6.539 1.915-8.817 4.608-2.285 2.687-3.179 6.388-2.683 11.102zM81.238-17.101l-0.022-2.81-0.002-5.33c-0.02-2.507-0.132-4.466-0.336-5.878v0c-0.106-0.819-0.548-1.459-1.325-1.919-0.777-0.454-1.455-0.679-2.035-0.675-0.573 0.004-0.951-0.099-1.133-0.311-0.182-0.212-0.273-0.385-0.274-0.517v0c-0.003-0.36 0.456-0.544 1.376-0.551v0l5.581 0.156 4.349-0.134c0.72-0.006 1.082 0.222 1.086 0.681v0c0.004 0.56-0.57 0.845-1.724 0.854v0c-0.653 0.005-1.125 0.682-1.414 2.031-0.283 1.356-0.418 2.74-0.407 4.153v0l0.014 1.83-0.064 4.541c0.006 0.827 0.107 1.353 0.302 1.577 0.202 0.232 0.666 0.345 1.393 0.34v0l8.099-0.114c0 0 3.11 0.009 9.331 0.027v0c0.36-0.003 0.522-2.294 0.486-6.874v0l-0.021-2.66c-0.019-2.473-0.525-3.986-1.516-4.539v0c-0.395-0.224-0.8-0.367-1.213-0.43-0.414-0.063-0.761-0.151-1.042-0.262-0.281-0.118-0.423-0.34-0.426-0.667-0.003-0.327 0.639-0.495 1.927-0.505v0l4.79 0.063 3.849-0.131c0.76-0.006 1.142 0.204 1.145 0.631 0.003 0.427-0.225 0.642-0.685 0.646v0c-0.927 0.007-1.624 0.293-2.093 0.856-0.476 0.564-0.71 1.306-0.703 2.226v0l-0.097 19.411 0.014 1.83 0.236 4.538c0.017 2.14 1.41 3.346 4.179 3.618v0c0.393-0.003 0.591 0.179 0.594 0.545v0c0.002 0.227-0.16 0.375-0.487 0.444-0.333 0.069-0.976 0.108-1.929 0.115v0l-3.802-0.22-4.638 0.286-0.839 0.007c-0.46 0.004-0.734-0.061-0.822-0.194-0.081-0.133-0.122-0.289-0.124-0.469-0.001-0.18 0.161-0.355 0.486-0.523 0.332-0.163 0.694-0.295 1.087-0.399 0.393-0.103 0.771-0.303 1.135-0.599v0c0.683-0.499 1.014-2.048 0.994-4.648v0l0.081-8.741c-0.004-0.5-0.203-0.845-0.598-1.035-0.395-0.197-1.039-0.292-1.932-0.285-0.887 0.007-2.22 0.051-3.999 0.132v0l-2.66 0.07-9.091-0.078c-0.493 0.004-0.823 0.106-0.987 0.308-0.158 0.195-0.234 0.705-0.228 1.531v0l-0.153 6.072 0.017 2.13c0.011 1.413 0.149 2.466 0.415 3.157 0.272 0.685 0.921 1.353 1.946 2.004v0c0.268 0.165 0.745 0.244 1.432 0.239v0c1.087-0.009 1.631 0.167 1.634 0.527v0c0.005 0.593-0.52 0.894-1.573 0.903v0l-4.102-0.168-5.327 0.292c-1.547 0.012-2.322-0.228-2.326-0.722v0c-0.004-0.46 0.504-0.761 1.523-0.902v0c0.393-0.036 0.801-0.246 1.225-0.63 0.43-0.383 0.706-0.896 0.828-1.536 0.128-0.641 0.265-2.379 0.409-5.214 0.144-2.828 0.207-5.528 0.186-8.101zM124.189 0.684l-4.072-0.393-4.252-0.157c-0.95-0.08-1.408-0.319-1.374-0.718v0c0.039-0.458 0.31-0.747 0.815-0.865v0c1.083-0.31 2.074-1.113 2.973-2.409 0.905-1.289 3.228-5.238 6.969-11.847 3.747-6.602 7.071-12.427 9.971-17.475v0c0.274-0.472 0.506-0.764 0.696-0.874 0.191-0.118 0.459-0.162 0.804-0.133 0.345 0.029 0.562 0.114 0.651 0.255 0.082 0.134 0.225 0.591 0.427 1.371 0.203 0.773 0.36 1.365 0.472 1.776 0.113 0.404 0.295 1.062 0.547 1.973 0.257 0.918 0.67 2.291 1.238 4.118 0.575 1.835 1.899 5.853 3.973 12.056 2.067 6.202 3.266 9.722 3.596 10.559 0.324 0.837 0.804 1.573 1.44 2.209 0.643 0.629 1.218 0.992 1.725 1.088 0.501 0.089 0.919 0.205 1.255 0.347 0.335 0.149 0.487 0.419 0.454 0.811v0c-0.041 0.492-0.504 0.7-1.388 0.625v0l-4.409-0.672-4.591-0.186c-1.016-0.086-1.661-0.18-1.933-0.283-0.272-0.11-0.397-0.294-0.375-0.553 0.022-0.266 0.169-0.461 0.441-0.586 0.278-0.124 0.565-0.2 0.862-0.228 0.303-0.021 0.594-0.144 0.874-0.368 0.286-0.223 0.454-0.621 0.502-1.192 0.049-0.578-0.245-2.018-0.881-4.319-0.63-2.294-1.179-3.99-1.648-5.086v0c-0.245-0.583-0.893-0.918-1.943-1.007v0l-5.966-0.412-2.611-0.22c-1.475-0.124-2.408-0.119-2.801 0.015-0.386 0.135-0.727 0.454-1.024 0.957-0.29 0.504-0.704 1.205-1.241 2.104-0.537 0.891-0.903 1.513-1.1 1.864-0.19 0.345-0.424 0.787-0.704 1.325v0c-0.508 0.947-0.79 1.75-0.845 2.408-0.055 0.658 0.09 1.198 0.435 1.622 0.346 0.424 0.745 0.688 1.198 0.794v0c1.201 0.201 1.779 0.565 1.735 1.089v0c-0.019 0.226-0.08 0.395-0.184 0.506-0.109 0.105-0.346 0.141-0.711 0.111zM134.338-26.761c-0.299-0.025-1.388 1.71-3.269 5.204-1.88 3.495-2.836 5.438-2.869 5.83-0.033 0.392 0.096 0.65 0.386 0.775 0.284 0.124 0.967 0.232 2.05 0.323v0l1.525 0.129 4.678 0.343c1.282 0.108 1.943-0.077 1.983-0.555 0.04-0.472-0.592-2.589-1.893-6.351-1.302-3.763-2.166-5.662-2.591-5.698zM164.613 5.422l-5.182-1.02-4.152-0.635c-0.709-0.126-1.017-0.448-0.926-0.966v0c0.052-0.295 0.296-0.445 0.73-0.45 0.434-0.004 0.997-0.165 1.69-0.482 0.692-0.311 1.25-0.919 1.674-1.826 0.433-0.912 1.262-3.984 2.488-9.217 1.232-5.232 2.061-9.046 2.486-11.442 0.426-2.403 0.371-4.362-0.166-5.879-0.53-1.516-1.655-2.524-3.374-3.026v0c-0.414-0.107-0.581-0.387-0.501-0.84v0c0.035-0.197 0.18-0.364 0.435-0.502 0.261-0.136 0.569-0.173 0.923-0.11v0l1.843 0.377 2.4 0.324c0.289 0.051 0.614 0.2 0.977 0.448 0.356 0.246 0.554 0.447 0.594 0.603 0.039 0.163 0.172 0.44 0.4 0.832 0.229 0.386 0.538 0.898 0.926 1.536 0.395 0.639 0.739 1.252 1.035 1.839v0c3.387 6.518 8.058 14.486 14.012 23.903v0c0.157 0.258 0.348 0.559 0.571 0.904 0.224 0.338 0.379 0.592 0.464 0.763 0.086 0.164 0.184 0.32 0.293 0.468v0c0.189 0.27 0.346 0.417 0.47 0.439v0c0.328 0.058 0.67-0.917 1.027-2.926v0l1.009-5.691 1.668-9.982 0.062-0.345c0.528-2.98 0.346-4.966-0.549-5.957v0c-0.335-0.364-0.627-0.609-0.875-0.734-0.241-0.131-0.596-0.285-1.065-0.463v0c-1.286-0.499-1.887-0.985-1.804-1.458 0.083-0.466 0.432-0.644 1.05-0.534v0l4.609 0.868c0 0 1.466 0.226 4.399 0.678v0c0.545 0.097 0.916 0.22 1.113 0.37 0.19 0.149 0.265 0.338 0.224 0.568-0.041 0.23-0.171 0.39-0.39 0.479v0c-0.285 0.119-0.789 0.232-1.513 0.341v0c-1.174 0.394-2.033 2.131-2.579 5.21v0l-0.326 1.841-4.801 23.98-0.171 0.965c-0.133 0.748-0.429 1.082-0.888 1.001v0c-0.289-0.051-0.528-0.212-0.717-0.483v0c-8.546-14.386-13.658-22.94-15.335-25.662-1.671-2.72-2.621-4.101-2.851-4.141v0c-0.322-0.057-0.717 1.237-1.186 3.883-0.468 2.639-1.082 5.722-1.843 9.25-0.754 3.529-1.16 5.455-1.218 5.776v0c-0.258 1.457-0.206 2.611 0.159 3.461 0.37 0.851 0.836 1.377 1.395 1.578 0.567 0.202 1.093 0.404 1.579 0.605 0.479 0.2 0.688 0.471 0.628 0.812-0.061 0.341-0.155 0.551-0.284 0.63-0.129 0.079-0.341 0.092-0.637 0.039z" opacity="1" transform="matrix(1,0,0,1,0,0)" fill="#ffffff" class="wordmark-text-0" data-fill-palette-color="primary" id="text-0"></path></svg></g></svg></g><g transform="matrix(1,0,0,1,118.31980799999998,97.25022748528602)"><svg viewBox="0 0 158.88038400000002 18.38538676952749" height="18.38538676952749" width="158.88038400000002"><g transform="matrix(1,0,0,1,0,0)"><svg width="158.88038400000002" viewBox="3.25 -35.54999923706055 311.07000732421875 36" height="18.38538676952749" data-palette-color="#ffffff"><path d="M7.28-5.43Q8.5-3.25 10.8-2.25 13.1-1.25 16.68-1.25 20.25-1.25 22.53-2.18 24.8-3.1 26.03-5.23 27.25-7.35 27.7-10.15 28.15-12.95 28.15-17.35L28.15-17.35Q28.15-25.75 25.73-29.75 23.3-33.75 16.65-33.75L16.65-33.75Q9.7-33.75 7.3-29.4L7.3-29.4Q6.1-27.2 5.63-24.38 5.15-21.55 5.15-17.32 5.15-13.1 5.6-10.35 6.05-7.6 7.28-5.43ZM5.9-4.1L5.9-4.1Q4.4-6.5 3.83-9.63 3.25-12.75 3.25-17.35L3.25-17.35Q3.25-26.55 6.15-31 9.05-35.45 16.65-35.45 24.25-35.45 27.15-31.03 30.05-26.6 30.05-17.2 30.05-7.8 27.23-3.68 24.4 0.45 16.55 0.45 8.7 0.45 5.9-4.1ZM39.7 0L37.9 0 37.9-35 42.15-35 58.8-1.7 60.15-1.7 60.15-35 61.95-35 61.95 0 57.7 0 41-33.3 39.7-33.3 39.7 0ZM90-1.7L90 0 71.15 0 71.15-35 72.95-35 72.95-1.7 90-1.7ZM97.09 0L95.29 0 95.29-35 97.09-35 97.09 0ZM108.09 0L106.29 0 106.29-35 110.54-35 127.19-1.7 128.54-1.7 128.54-35 130.34-35 130.34 0 126.09 0 109.39-33.3 108.09-33.3 108.09 0ZM159.99 0L139.54 0 139.54-35 159.99-35 159.99-33.3 141.34-33.3 141.34-18.75 156.99-18.75 156.99-17.05 141.34-17.05 141.34-1.7 159.99-1.7 159.99 0ZM187.13-33.85L187.13-33.85Q178.23-33.85 178.23-26.85L178.23-26.85Q178.23-23.7 179.28-22.3L179.28-22.3Q179.88-21.55 180.53-21.03 181.18-20.5 182.43-20.1L182.43-20.1Q184.48-19.5 187.63-19L187.63-19Q193.08-18.15 195.46-16.38 197.83-14.6 197.83-10.15L197.83-10.15Q197.83-4.5 195.21-2.08 192.58 0.35 187.23 0.35L187.23 0.35Q183.93 0.35 178.38-0.25L178.38-0.25 176.53-0.45 176.73-2.2Q183.63-1.35 187.63-1.35L187.63-1.35Q195.93-1.35 195.93-10L195.93-10Q195.93-13.65 194.03-15.05 192.13-16.45 188.16-17.05 184.18-17.65 182.51-18.13 180.83-18.6 179.26-19.6 177.68-20.6 177.01-22.33 176.33-24.05 176.33-26.75L176.33-26.75Q176.33-35.55 187.13-35.55L187.13-35.55Q190.58-35.55 195.43-34.95L195.43-34.95 197.08-34.75 196.88-33Q190.03-33.85 187.13-33.85ZM212.83-33.3L201.18-33.3 201.18-35 226.18-35 226.18-33.3 214.63-33.3 214.63 0 212.83 0 212.83-33.3ZM232.6-5.43Q233.83-3.25 236.13-2.25 238.43-1.25 242-1.25 245.58-1.25 247.85-2.18 250.13-3.1 251.35-5.23 252.58-7.35 253.03-10.15 253.48-12.95 253.48-17.35L253.48-17.35Q253.48-25.75 251.05-29.75 248.63-33.75 241.98-33.75L241.98-33.75Q235.03-33.75 232.63-29.4L232.63-29.4Q231.43-27.2 230.95-24.38 230.48-21.55 230.48-17.32 230.48-13.1 230.93-10.35 231.38-7.6 232.6-5.43ZM231.23-4.1L231.23-4.1Q229.73-6.5 229.15-9.63 228.58-12.75 228.58-17.35L228.58-17.35Q228.58-26.55 231.48-31 234.38-35.45 241.98-35.45 249.58-35.45 252.48-31.03 255.38-26.6 255.38-17.2 255.38-7.8 252.55-3.68 249.73 0.45 241.88 0.45 234.03 0.45 231.23-4.1ZM276.98-14.5L265.03-14.5 265.03 0 263.23 0 263.23-35 275.78-35Q281.08-35 283.63-32.6 286.18-30.2 286.18-25L286.18-25Q286.18-16.15 278.93-14.75L278.93-14.75 286.83 0 284.78 0 276.98-14.5ZM284.28-25L284.28-25Q284.28-29.35 282.23-31.33 280.18-33.3 275.78-33.3L275.78-33.3 265.03-33.3 265.03-16.2 275.78-16.2Q284.28-16.2 284.28-25ZM314.32 0L293.87 0 293.87-35 314.32-35 314.32-33.3 295.67-33.3 295.67-18.75 311.32-18.75 311.32-17.05 295.67-17.05 295.67-1.7 314.32-1.7 314.32 0Z" opacity="1" transform="matrix(1,0,0,1,0,0)" fill="#ffffff" class="slogan-text-1" data-fill-palette-color="secondary" id="text-1"></path></svg></g></svg></g></svg></g></svg></g><g></g></svg></g><defs></defs></svg><rect width="395.52" height="115.6356142548135" fill="none" stroke="none" visibility="hidden"></rect></g></svg></g></svg>